<svg width="1024" height="768" version="1.1" viewBox="0 0 1024 768" xmlns="http://www.w3.org/2000/svg"><defs><linearGradient id="a" x1="5.0577e-7" x2="512" y1="5.0549e-7" y2="512" gradientUnits="userSpaceOnUse"><stop stop-color="#00ff7c" offset="0"/><stop stop-color="#003944" offset="1"/></linearGradient></defs><rect y="1.3766" width="1028" height="768" stroke-width="3.508"/><g transform="translate(0 -6.1619)"><path d="m129.8 579.99v-114.35h25.068v44.298h48.591v-44.298h25.24v114.35h-25.24v-48.762h-48.591v48.762zm137.19 38.46q-4.2924 0-8.4132-1.0302-3.949-1.0302-8.0698-2.7472l3.6056-19.917q6.5245 3.2623 10.989 3.2623 5.666 0 8.2415-3.949 2.7472-3.9491 5.4943-11.504l-34.511-90.657 25.068-2.0604 21.119 63.357 19.574-61.64h23.866q-3.7774 11.504-8.2415 24.381-4.4642 12.877-9.2717 25.926-4.6358 12.877-9.1 24.553-4.4642 11.504-8.4132 20.604t-6.8679 14.423q-4.6358 8.2415-10.474 12.534-5.8377 4.4642-14.594 4.4642zm105.59-35.885q-14.766 0-23.351-11.332-8.5849-11.504-8.5849-31.936 0-24.381 12.534-37.258 12.706-12.877 36.057-12.877 2.4038 0 4.4642.17169 2.0604 0 4.2924.17169v-34.855h23.866v125.34h-23.523l.51509-11.504h-.68678q-9.1 14.079-25.583 14.079zm5.4943-21.119q5.4943 0 10.645-4.6358 5.151-4.8076 9.2717-13.564v-31.421q-5.8377-1.5453-11.16-1.5453-10.817 0-16.483 7.0396-5.4944 7.0396-5.4944 20.604 0 10.989 3.434 17.342 3.6057 6.1811 9.7868 6.1811zm66.447 18.543v-88.425h24.209v14.423h1.3736q4.4642-7.8981 9.2717-12.362 4.9792-4.6359 12.877-4.6359 3.0906 0 5.151.6868l-2.5755 26.098q-1.8887-.51508-3.6057-.85848t-3.6057-.3434q-6.3528 0-10.13 3.7774-3.7774 3.6057-8.7566 9.7868v51.853zm105.77 2.5755q-13.564 0-23.694-5.8377t-15.796-16.311q-5.666-10.474-5.666-24.553t5.666-24.553 15.796-16.311q10.13-5.8377 23.523-5.8377 13.564 0 23.523 5.8377 10.13 5.666 15.796 16.14 5.666 10.302 5.666 24.209 0 14.079-5.666 24.725-5.4944 10.645-15.625 16.655-10.13 5.8377-23.523 5.8377zm-.17171-20.947q9.2717 0 14.766-7.0396 5.666-7.2113 5.666-18.887 0-11.675-5.666-18.543-5.4943-7.0396-14.766-7.0396t-14.938 7.0396q-5.4943 6.8679-5.4943 18.543 0 11.675 5.4943 18.887 5.666 7.0396 14.938 7.0396zm93.404 57.347q-6.1811 0-14.079-.85849-7.7264-.85848-15.796-3.0906l4.6358-21.291q7.0396 2.0604 13.908 3.434 6.8679 1.3736 13.564 1.3736 8.9283 0 13.564-2.9189 4.8076-2.7472 6.6962-8.7566 1.8887-6.0094 2.2321-15.625h-.51511q-9.7868 11.332-25.068 11.332-15.109 0-23.694-11.332-8.4132-11.504-8.4132-31.764 0-24.553 12.706-37.43t36.057-12.877q7.0396 0 15.281 1.2019 8.2415 1.0302 16.998 2.9189.1717 13.221.1717 26.613.17169 13.392.17169 26.613 0 6.0094 0 12.019 0 6.0094-.17169 12.019-.34339 24.381-12.191 36.4-11.847 12.019-36.057 12.019zm5.4943-57.519q5.4944 0 10.13-3.949 4.8076-4.1208 8.5849-11.16v-34.511q-5.666-1.5453-10.989-1.5453-10.989 0-16.483 7.0396-5.4943 7.0396-5.4943 20.432 0 11.16 3.6057 17.513 3.7774 6.1811 10.645 6.1811zm106.62 21.119q-21.291 0-33.653-12.362t-12.362-34.34q0-14.423 5.3226-24.896 5.3226-10.474 14.938-16.14 9.7868-5.666 22.836-5.666 19.23 0 29.532 12.362t10.302 35.713q0 1.5453 0 3.0906 0 1.3736-.1717 2.7472h-58.377q3.434 18.543 24.553 18.543 6.5245 0 13.221-1.5453 6.8679-1.717 12.019-4.4642l3.949 19.402q-14.251 7.5547-32.108 7.5547zm-21.806-57.691h35.541q-.51511-7.383-5.151-11.675-4.6358-4.4642-12.362-4.4642-7.383 0-12.191 4.2924-4.6358 4.2924-5.8377 11.847zm76.749 55.115v-88.425h23.694v15.281q5.4943-9.2717 12.706-13.392 7.383-4.2924 16.826-4.2924 14.251 0 22.321 8.5849 8.0698 8.4132 8.0698 23.523v58.721h-24.209v-54.943q0-7.0396-3.434-10.817t-9.2717-3.7774q-7.0396 0-13.221 5.3226-6.0094 5.151-9.2717 12.877v51.338z" fill="#fff" stroke-width="0" aria-label="Hydrogen"/><g transform="matrix(.51501 0 0 .51501 380.16 161.99)"><circle cx="256" cy="256" r="256" fill="url(#a)" fill-rule="evenodd" stroke="#000" stroke-width="2.4352"/><g transform="matrix(.88214 0 0 .88214 24.569 30.171)"><circle cx="256" cy="256" r="58.528" fill="#fff" stroke-linecap="round" stroke-linejoin="round" stroke-width="15.739"/><ellipse cx="423.87" cy="141.18" rx="42.858" ry="42.07" fill="#fff"/><g fill="none" stroke="#fdfdfd" stroke-width="19.978"><ellipse transform="rotate(90)" cx="256" cy="-256" rx="211.79" ry="82.722"/><ellipse transform="rotate(30)" cx="349.7" cy="93.703" rx="211.79" ry="82.722"/><ellipse transform="rotate(150)" cx="-93.703" cy="-349.7" rx="211.79" ry="82.722"/></g></g></g></g></svg>
