<svg width="128" height="128" enable-background="new 0 0 306 344.35" version="1.1" viewBox="0 0 128 128" xmlns="http://www.w3.org/2000/svg"><g stroke-width=".37172"><path d="m119.43 96c.89249-1.546 1.4471-3.2878 1.4471-4.852v-54.296c0-1.5642-.55385-3.3057-1.4467-4.8516l-55.426 32z" fill="#00599c"/><path d="m68.925 126.83 47.022-27.148c1.3545-.78209 2.5856-2.1325 3.4781-3.6789l-55.425-32-55.425 32c.89249 1.546 2.124 2.8968 3.4781 3.6785l47.022 27.148c2.7087 1.5642 7.1418 1.5642 9.8505 0z" fill="#004482"/><path d="m119.43 32c-.89287-1.5463-2.1244-2.8968-3.4785-3.6789l-47.022-27.148c-2.7087-1.5642-7.1418-1.5642-9.8505 0l-47.022 27.148c-2.7091 1.5638-4.9252 5.4029-4.9252 8.5309v54.296c0 1.5642.55423 3.306 1.4471 4.852l55.425-32z" fill="#659ad2"/></g><g transform="matrix(.37172 0 0 .37172 7.1275 1.24e-6)" fill="#fff"><path d="m153 274.18c-56.243 0-102-45.757-102-102s45.757-102 102-102c36.292 0 70.139 19.53 88.331 50.968l-44.143 25.544c-9.105-15.736-26.038-25.512-44.188-25.512-28.122 0-51 22.878-51 51 0 28.121 22.878 51 51 51 18.152 0 35.085-9.776 44.191-25.515l44.143 25.543c-18.192 31.441-52.04 50.972-88.334 50.972z"/><polygon points="232.33 166.51 221 166.51 221 177.84 232.33 177.84 232.33 189.18 243.67 189.18 243.67 177.84 255 177.84 255 166.51 243.67 166.51 243.67 155.18 232.33 155.18"/><polygon points="274.83 166.51 263.5 166.51 263.5 177.84 274.83 177.84 274.83 189.18 286.17 189.18 286.17 177.84 297.5 177.84 297.5 166.51 286.17 166.51 286.17 155.18 274.83 155.18"/></g></svg>
