<?xml version="1.0" encoding="UTF-8"?>
<svg width="128" height="128" preserveAspectRatio="xMidYMid" version="1.1" viewBox="0 -1.428 14.723 14.854" xmlns="http://www.w3.org/2000/svg">
 <g stroke-width=".051709">
  <path d="m13.969 2.9389c-1.03e-4 -0.24975-0.053518-0.47045-0.16154-0.65981-0.10611-0.18631-0.26501-0.34242-0.47815-0.46585-1.7594-1.0145-3.5205-2.0259-5.2793-3.0414-0.47417-0.27375-0.93392-0.26372-1.4046 0.013962-0.7003 0.41295-4.2064 2.4217-5.2512 3.0268-0.43027 0.24913-0.63964 0.63033-0.63974 1.1258-6.7222e-4 2.0402 0 4.0804-6.7222e-4 6.1205 0 0.24427 0.051244 0.46073 0.15451 0.64724 0.10616 0.19189 0.26728 0.35229 0.48534 0.47852 1.0448 0.60515 4.5514 2.6137 5.2516 3.0268 0.47086 0.27783 0.93061 0.28776 1.4049 0.01396 1.7589-1.0156 3.5201-2.0269 5.2797-3.0414 0.21806-0.12617 0.37918-0.28667 0.48534-0.47841 0.10311-0.18657 0.15446-0.40297 0.15446-0.64729 0 0 0-4.0793-6.73e-4 -6.1195" fill="#a179dc"/>
  <path d="m7.3817 5.9788-6.4737 3.7274c0.10616 0.19189 0.26728 0.35229 0.48534 0.47852 1.0448 0.60515 4.5514 2.6137 5.2516 3.0268 0.47086 0.27783 0.93061 0.28776 1.4049 0.01396 1.7589-1.0156 3.5201-2.0269 5.2797-3.0414 0.21806-0.12617 0.37918-0.28667 0.48534-0.47841z" fill="#280068"/>
  <path d="m13.969 2.9389c-1.03e-4 -0.24975-0.053518-0.47045-0.16154-0.65981l-6.4255 3.6998 6.4333 3.7268c0.10311-0.18657 0.15435-0.40297 0.15446-0.64729 0 0 0-4.0793-6.73e-4 -6.1195" fill="#390091"/>
 </g>
 <g transform="matrix(.051709 0 0 .051709 .75355 -1.428)" fill="#fff">
  <path d="m201.89 116.29v13.474h13.474v-13.474h6.737v13.474h13.474v6.737h-13.474v13.473h13.474v6.737h-13.474v13.474h-6.737v-13.474h-13.474v13.474h-6.737v-13.474h-13.473v-6.737h13.473v-13.473h-13.473v-6.737h13.473v-13.474zm13.474 20.21h-13.474v13.474h13.474z"/>
  <path d="m128.46 48.626c35.144 0 65.827 19.086 82.262 47.456l-0.16-0.273-41.35 23.808c-8.146-13.793-23.08-23.102-40.213-23.294l-0.54-3e-3c-26.125 0-47.305 21.18-47.305 47.305a47.08 47.08 0 0 0 6.239 23.47c8.154 14.235 23.483 23.836 41.067 23.836 17.693 0 33.109-9.723 41.221-24.11l-0.197 0.345 41.287 23.918c-16.255 28.13-46.518 47.157-81.253 47.536l-1.058 6e-3c-35.255 0-66.025-19.204-82.419-47.724-8.003-13.923-12.582-30.064-12.582-47.277 0-52.466 42.532-95 95-95z"/>
 </g>
</svg>
