<svg width="128" height="128" preserveAspectRatio="xMidYMid" version="1.1" viewBox="0 -1.428 14.723 14.854" xmlns="http://www.w3.org/2000/svg"><g stroke-width=".051709"><path d="m13.969 2.9389c-.000103-.24975-.053518-.47045-.16154-.65981-.10611-.18631-.26501-.34242-.47815-.46585-1.7594-1.0145-3.5205-2.0259-5.2793-3.0414-.47417-.27375-.93392-.26372-1.4046.013962-.7003.41295-4.2064 2.4217-5.2512 3.0268-.43027.24913-.63964.63033-.63974 1.1258-.00067222 2.0402 0 4.0804-.00067222 6.1205 0 .24427.051244.46073.15451.64724.10616.19189.26728.35229.48534.47852 1.0448.60515 4.5514 2.6137 5.2516 3.0268.47086.27783.93061.28776 1.4049.01396 1.7589-1.0156 3.5201-2.0269 5.2797-3.0414.21806-.12617.37918-.28667.48534-.47841.10311-.18657.15446-.40297.15446-.64729 0 0 0-4.0793-.000673-6.1195" fill="#a179dc"/><path d="m7.3817 5.9788-6.4737 3.7274c.10616.19189.26728.35229.48534.47852 1.0448.60515 4.5514 2.6137 5.2516 3.0268.47086.27783.93061.28776 1.4049.01396 1.7589-1.0156 3.5201-2.0269 5.2797-3.0414.21806-.12617.37918-.28667.48534-.47841z" fill="#280068"/><path d="m13.969 2.9389c-.000103-.24975-.053518-.47045-.16154-.65981l-6.4255 3.6998 6.4333 3.7268c.10311-.18657.15435-.40297.15446-.64729 0 0 0-4.0793-.000673-6.1195" fill="#390091"/></g><g transform="matrix(.051709 0 0 .051709 .75355 -1.428)" fill="#fff"><path d="m201.89 116.29v13.474h13.474v-13.474h6.737v13.474h13.474v6.737h-13.474v13.473h13.474v6.737h-13.474v13.474h-6.737v-13.474h-13.474v13.474h-6.737v-13.474h-13.473v-6.737h13.473v-13.473h-13.473v-6.737h13.473v-13.474zm13.474 20.21h-13.474v13.474h13.474z"/><path d="m128.46 48.626c35.144 0 65.827 19.086 82.262 47.456l-.16-.273-41.35 23.808c-8.146-13.793-23.08-23.102-40.213-23.294l-.54-.003c-26.125 0-47.305 21.18-47.305 47.305a47.08 47.08 0 006.239 23.47c8.154 14.235 23.483 23.836 41.067 23.836 17.693 0 33.109-9.723 41.221-24.11l-.197.345 41.287 23.918c-16.255 28.13-46.518 47.157-81.253 47.536l-1.058.006c-35.255 0-66.025-19.204-82.419-47.724-8.003-13.923-12.582-30.064-12.582-47.277 0-52.466 42.532-95 95-95z"/></g></svg>
