<svg width="128" height="128" data-name="Layer 1" version="1.1" viewBox="0 0 128 128" xmlns="http://www.w3.org/2000/svg"><defs><style>.cls-1{fill:#01579b;}.cls-2{fill:#40c4ff;}.cls-3{fill:#29b6f6;}.cls-4{fill:#fff;}.cls-4,.cls-5,.cls-6{opacity:0.2;isolation:isolate;}.cls-5{fill:#263238;}.cls-6{fill:url(#a);}</style><radialGradient id="a" cx="251.42" cy="631.97" r="251.4" gradientTransform="translate(0,-380.56)" gradientUnits="userSpaceOnUse"><stop stop-color="#fff" stop-opacity=".1" offset="0"/><stop stop-color="#fff" stop-opacity="0" offset="1"/></radialGradient></defs><title>dart-programming-language</title><g transform="scale(.25454)"><path class="cls-1" d="m 102.56,400.31 -86,-86 C 6.32,303.82 0,289 0,274.58 0,267.89 3.77,257.42 6.62,251.43 L 86,86 Z"/><path class="cls-2" d="m 397,102.56 -86,-86 C 303.49,9 287.85,0 274.61,0 263.23,0 252.06,2.29 244.85,6.62 L 86.07,86 Z"/><polygon class="cls-2" points="413.55 502.87 413.55 413.55 258.05 363.9 115.79 413.55 205.11 502.87"/><path class="cls-3" d="m86 354c0 26.54 3.33 33.05 16.53 46.32l13.23 13.24h297.79l-145.55-165.42-182-162.14z"/><path class="cls-1" d="m350.7 86h-264.7l327.55 327.51h89.32v-205.11l-105.87-105.88c-14.88-14.9-28.08-16.52-46.3-16.52z"/><path class="cls-4" d="m105.88 403.6c-13.23-13.27-16.52-26.36-16.52-49.6v-264.68l-3.29-3.32v268c0 23.25 0 29.69 19.81 49.61l9.91 9.91z"/><polygon class="cls-5" points="502.87 208.4 499.58 205.11 499.58 410.22 410.26 410.22 413.55 413.55 502.87 413.55"/><path class="cls-4" d="m397 102.56c-16.39-16.42-29.81-16.56-49.59-16.56h-261.34l3.29 3.29h258.05c9.87 0 34.79-1.66 49.61 13.24z"/><path class="cls-6" d="m499.58 205.11-102.58-102.55-86-86c-7.51-7.56-23.15-16.56-36.39-16.56-11.38 0-22.55 2.29-29.76 6.62l-158.78 79.38-79.42 165.43c-2.84 6.03-6.65 16.49-6.65 23.15 0 14.45 6.36 29.2 16.52 39.7l79.31 78.72a92.42 92.42 0 006.73 7.32l3.29 3.29 9.9 9.91 89.29 89.29h208.4v-89.3h89.32v-205.11z" fill="url(#a)"/></g></svg>
