<?xml version="1.0" encoding="UTF-8"?>
<svg width="128" height="128" data-name="Layer 1" version="1.1" viewBox="0 0 128 128" xmlns="http://www.w3.org/2000/svg">
 <defs>
  <style>.cls-1 {
        fill: #1d63ed;
        stroke-width: 0px;
      }</style>
 </defs>
 <path class="cls-1" d="m125.92 54.996c-3.138-2.1123-11.384-3.0144-17.379-1.3997-0.32328-5.9713-3.402-11.003-9.0348-15.394l-2.0852-1.3997-1.3896 2.0988c-2.7318 4.1467-3.8827 9.6712-3.4748 14.693 0.32158 3.094 1.398 6.5722 3.4748 9.0958-7.8027 4.5259-14.994 3.4985-46.845 3.4985h-49.175c-0.14387 7.1916 1.0121 21.027 9.81 32.289 0.97152 1.244 2.0378 2.4474 3.1938 3.6068 7.1527 7.1629 17.96 12.415 34.12 12.43 24.654 0.022 45.777-13.303 58.625-45.525 4.228 0.0694 15.389 0.75826 20.851-9.7965 0.13371-0.17772 1.3896-2.7995 1.3896-2.7995l-2.0818-1.3997zm-93.816-6.5773h-13.828v13.828h13.828zm17.865 0h-13.828v13.828h13.828zm17.865 0h-13.828v13.828h13.828zm17.865 0h-13.828v13.828h13.828zm-71.459 0h-13.828v13.828h13.828zm17.865-17.465h-13.828v13.828h13.828zm17.865 0h-13.828v13.828h13.828zm17.865 0h-13.828v13.828h13.828zm0-17.467h-13.828v13.828h13.828z"/>
</svg>
