<?xml version="1.0" encoding="UTF-8" standalone="no"?>
<!-- Generator: Adobe Illustrator 17.0.0, SVG Export Plug-In . SVG Version: 6.00 Build 0)  -->

<svg
   version="1.1"
   x="0px"
   y="0px"
   width="512px"
   height="512px"
   viewBox="0 0 512 512"
   enable-background="new 0 0 512 512"
   xml:space="preserve"
   id="svg15"
   sodipodi:docname="jekyll.svg"
   inkscape:version="1.3.2 (091e20e, 2023-11-25, custom)"
   xmlns:inkscape="http://www.inkscape.org/namespaces/inkscape"
   xmlns:sodipodi="http://sodipodi.sourceforge.net/DTD/sodipodi-0.dtd"
   xmlns="http://www.w3.org/2000/svg"
   xmlns:svg="http://www.w3.org/2000/svg"><defs
   id="defs15" /><sodipodi:namedview
   id="namedview15"
   pagecolor="#505050"
   bordercolor="#eeeeee"
   borderopacity="1"
   inkscape:showpageshadow="0"
   inkscape:pageopacity="0"
   inkscape:pagecheckerboard="0"
   inkscape:deskcolor="#505050"
   inkscape:zoom="1.6816406"
   inkscape:cx="255.70267"
   inkscape:cy="256"
   inkscape:window-width="1920"
   inkscape:window-height="1057"
   inkscape:window-x="1912"
   inkscape:window-y="-8"
   inkscape:window-maximized="1"
   inkscape:current-layer="svg15" />

<g
   id="logo-bg-light"
   display="inline">
	<g
   id="test-tube_1_"
   display="inline">
		<path
   id="shadow_1_"
   opacity="0.1"
   d="m 269.02,59.151 c -0.184,0.737 -0.188,1.529 -0.033,2.365 0,0 2.507,16.642 -0.339,24.048 l -121.005,314.633 0.009,0.004 c -8.636,23.11 2.937,48.911 26.014,57.787 23.077,8.875 48.955,-2.524 58.03,-25.464 l 0.011,0.005 121.005,-314.634 c 2.366,-6.155 15.86,-18.079 15.86,-18.079 0.677,-0.516 1.202,-1.108 1.56,-1.778 l 0.059,-0.122 c 0.065,-0.132 0.141,-0.258 0.193,-0.395 3.12,-8.113 -17.005,-23.405 -44.952,-34.152 -27.948,-10.748 -53.133,-12.884 -56.253,-4.771 -0.053,0.137 -0.083,0.281 -0.122,0.422 z" />
		
			<linearGradient
   id="tube_4_"
   gradientUnits="userSpaceOnUse"
   x1="206.4585"
   y1="215.26289"
   x2="283.12949"
   y2="291.9339"
   gradientTransform="matrix(0.9138,-0.4062,0.4062,0.9138,-80.6459,125.703)">
			<stop
   offset="0"
   style="stop-color:#919191"
   id="stop8" />
			<stop
   offset="1"
   style="stop-color:#FFFFFF"
   id="stop9" />
		</linearGradient>
		<path
   id="tube_1_"
   fill="url(#tube_4_)"
   d="m 265.523,56.477 c -0.185,0.737 -0.19,1.529 -0.033,2.365 0,0 2.508,16.642 -0.34,24.048 l -121.006,314.632 0.011,0.004 c -8.635,23.11 2.937,48.911 26.014,57.787 23.075,8.875 48.955,-2.524 58.03,-25.464 l 0.011,0.005 121.005,-314.634 c 2.365,-6.155 15.86,-18.079 15.86,-18.079 0.677,-0.516 1.202,-1.107 1.56,-1.778 l 0.058,-0.122 c 0.065,-0.131 0.141,-0.258 0.193,-0.395 3.12,-8.113 -17.005,-23.404 -44.951,-34.152 -27.948,-10.748 -53.133,-12.884 -56.253,-4.771 -0.053,0.137 -0.083,0.281 -0.122,0.422 z" />
		
			<linearGradient
   id="liquid_3_"
   gradientUnits="userSpaceOnUse"
   x1="177.62891"
   y1="273.75229"
   x2="224.04559"
   y2="320.16891"
   gradientTransform="matrix(0.9138,-0.4062,0.4062,0.9138,-80.6459,125.703)">
			<stop
   offset="0"
   style="stop-color:#990000"
   id="stop10" />
			<stop
   offset="1"
   style="stop-color:#E80000"
   id="stop11" />
		</linearGradient>
		<path
   id="liquid_1_"
   fill="url(#liquid_3_)"
   d="m 303.48,198.814 -87.262,226.896 0.057,0.021 c -6.436,16.262 -25.166,24.723 -41.781,18.333 -16.615,-6.39 -25.608,-25.512 -19.488,-41.897 v 0 l 55.758,-144.982 c 0,0 6.964,-11.233 20.637,-19.225 13.673,-7.991 24.949,-6.305 40.132,-13.053 15.182,-6.748 31.947,-26.093 31.947,-26.093 z" />
		
			<ellipse
   id="top_1_"
   transform="matrix(0.9334,0.359,-0.359,0.9334,48.4129,-108.3439)"
   fill="#333333"
   cx="315.97"
   cy="76.200996"
   rx="33.647999"
   ry="8.8500004" />
		<path
   id="side-reflection_1_"
   opacity="0.3"
   fill="#ffffff"
   d="m 265.489,58.841 c 0,0 2.471,16.737 -0.34,24.048 l -121.005,314.633 0.011,0.004 c -8.635,23.11 2.937,48.911 26.014,57.787 4.005,1.54 8.092,2.455 12.164,2.822 -15.556,-11.702 -22.23,-32.632 -15.093,-51.73 l -0.011,-0.004 118.604,-308.392 c 0,0 -16.144,-15.159 -20.344,-39.168 z" />
		<g
   id="bubbles_1_">
			<circle
   opacity="0.5"
   fill="#ffffff"
   cx="226.53101"
   cy="261.806"
   r="3.506"
   id="circle11" />
			<circle
   opacity="0.5"
   fill="#ffffff"
   cx="249.51401"
   cy="287.22699"
   r="5.2849998"
   id="circle12" />
			<circle
   opacity="0.5"
   fill="#ffffff"
   cx="214.429"
   cy="317.45901"
   r="9.915"
   id="circle13" />
			<circle
   opacity="0.5"
   fill="#ffffff"
   cx="198.375"
   cy="335.79501"
   r="5.2859998"
   id="circle14" />
			<circle
   opacity="0.5"
   fill="#ffffff"
   cx="219.42999"
   cy="375.008"
   r="3.506"
   id="circle15" />
		</g>
	</g>
</g>
</svg>
