<svg width="128" height="128" enable-background="new 0 0 512 512" version="1.1" viewBox="0 0 128 128" xmlns="http://www.w3.org/2000/svg"><g transform="matrix(.31219 0 0 .31219 -15.922 -15.922)"><path d="m269.02 59.151c-.184.737-.188 1.529-.033 2.365 0 0 2.507 16.642-.339 24.048l-121 314.63.009.004c-8.636 23.11 2.937 48.911 26.014 57.787 23.077 8.875 48.955-2.524 58.03-25.464l.011.005 121-314.63c2.366-6.155 15.86-18.079 15.86-18.079.677-.516 1.202-1.108 1.56-1.778l.059-.122c.065-.132.141-.258.193-.395 3.12-8.113-17.005-23.405-44.952-34.152-27.948-10.748-53.133-12.884-56.253-4.771-.053.137-.083.281-.122.422z" opacity=".1"/><linearGradient id="a" x1="206.46" x2="283.13" y1="215.26" y2="291.93" gradientTransform="matrix(.9138 -.4062 .4062 .9138 -80.646 125.7)" gradientUnits="userSpaceOnUse"><stop stop-color="#919191" offset="0"/><stop stop-color="#fff" offset="1"/></linearGradient><path d="m265.52 56.477c-.185.737-.19 1.529-.033 2.365 0 0 2.508 16.642-.34 24.048l-121.01 314.63.011.004c-8.635 23.11 2.937 48.911 26.014 57.787 23.075 8.875 48.955-2.524 58.03-25.464l.011.005 121-314.63c2.365-6.155 15.86-18.079 15.86-18.079.677-.516 1.202-1.107 1.56-1.778l.058-.122c.065-.131.141-.258.193-.395 3.12-8.113-17.005-23.404-44.951-34.152-27.948-10.748-53.133-12.884-56.253-4.771-.053.137-.083.281-.122.422z" fill="url(#a)"/><linearGradient id="b" x1="177.63" x2="224.05" y1="273.75" y2="320.17" gradientTransform="matrix(.9138 -.4062 .4062 .9138 -80.646 125.7)" gradientUnits="userSpaceOnUse"><stop stop-color="#900" offset="0"/><stop stop-color="#E80000" offset="1"/></linearGradient><path d="m303.48 198.81-87.262 226.9.057.021c-6.436 16.262-25.166 24.723-41.781 18.333s-25.608-25.512-19.488-41.897l55.758-144.98s6.964-11.233 20.637-19.225c13.673-7.991 24.949-6.305 40.132-13.053 15.182-6.748 31.947-26.093 31.947-26.093z" fill="url(#b)"/><ellipse transform="matrix(.9334 .359 -.359 .9334 48.413 -108.34)" cx="315.97" cy="76.201" rx="33.648" ry="8.85" fill="#333"/><path d="m265.49 58.841s2.471 16.737-.34 24.048l-121 314.63.011.004c-8.635 23.11 2.937 48.911 26.014 57.787 4.005 1.54 8.092 2.455 12.164 2.822-15.556-11.702-22.23-32.632-15.093-51.73l-.011-.004 118.6-308.39s-16.144-15.159-20.344-39.168z" fill="#fff" opacity=".3"/><g fill="#fff"><circle cx="226.53" cy="261.81" r="3.506" opacity=".5"/><circle cx="249.51" cy="287.23" r="5.285" opacity=".5"/><circle cx="214.43" cy="317.46" r="9.915" opacity=".5"/><circle cx="198.38" cy="335.8" r="5.286" opacity=".5"/><circle cx="219.43" cy="375.01" r="3.506" opacity=".5"/></g></g></svg>
