<?xml version="1.0" encoding="UTF-8"?>
<svg width="128" height="128" fill="none" version="1.1" viewBox="0 0 128 128" xmlns="http://www.w3.org/2000/svg">
 <path d="m0 32.914 14.629-14.629h113.37v76.8l-14.629 14.629h-113.37zm60.928 69.111 8.4754-3.9497h-0.0091l-6.912-11.109c3.1817-2.1394 5.4766-5.2389 6.8754-9.2983 1.3897-4.0594 2.0937-9.3806 2.0937-15.963 0-9.984-1.7006-17.381-5.1017-22.181s-9.3257-7.2046-17.774-7.2046-14.382 2.4137-17.81 7.2411c-3.4286 4.8366-5.1383 12.224-5.1383 22.181 0 9.9566 1.6823 17.243 5.056 21.851 3.3829 4.608 9.344 6.912 17.902 6.912 2.304 0 3.9771-0.16457 5.0194-0.49372zm22.866-14.729c1.728 2.1394 4.928 3.2091 9.5909 3.2091 1.92 0 4.7177-0.35657 8.3931-1.0697l-0.41143-7.1589-6.7474 0.24686c-2.0297 0-3.2914-0.54857-3.7851-1.6457-0.49372-1.0971-0.74057-3.3189-0.74057-6.6651v-18.103h11.355v-7.6526h-11.355v-11.931h-8.8869v11.931h-5.2663v7.6526h5.2663v19.09c0 5.9246 0.85943 9.9566 2.5874 12.096zm-45.824-41.883c1.92-3.4011 5.4583-5.1017 10.615-5.1017 5.1566 0 8.6856 1.7006 10.578 5.1017 1.8834 3.4011 2.8343 8.8594 2.8343 16.375 0 7.5154-0.91428 12.846-2.752 16-1.8469 3.1543-5.3942 4.7269-10.66 4.7269s-8.832-1.6-10.697-4.8091c-1.8651-3.2092-2.7977-8.5395-2.7977-16 0-7.4606 0.96-12.891 2.88-16.293z" clip-rule="evenodd" fill="#2cde85" fill-rule="evenodd" stroke-width=".57143"/>
</svg>
