<svg width="128" height="128" version="1.1" xmlns="http://www.w3.org/2000/svg"><g transform="matrix(.9256 0 0 .9256 -2.6456 -2.6431)" fill="#ce412b"><path d="m72 8.994c-34.735 0-63.006 28.284-63.006 63.006s28.284 63.006 63.006 63.006 63.006-28.284 63.006-63.006-28.284-63.006-63.006-63.006zm-.0933 5.5982a4.132 4.1453 0 014.0253 4.1453 4.1453 4.1453 0 01-8.2906 0 4.1453 4.1453 0 014.2653-4.1453zm9.4902 6.8244a51.01 51.01 0 0134.922 24.872l-4.8917 11.036c-.83973 1.906.0267 4.1453 1.9194 4.9984l9.4102 4.172a51.01 51.01 0 01.10663 8.8504h-5.2383c-.51983 0-.73309.34655-.73309.85305v2.3992c0 5.6515-3.1856 6.8911-5.9847 7.1976-2.6658.30657-5.6115-1.1196-5.9847-2.7458-1.5728-8.8371-4.1853-10.716-8.3173-13.982 5.1317-3.2523 10.463-8.064 10.463-14.489 0-6.9444-4.7584-11.316-7.9974-13.462-4.5585-2.999-9.5968-3.5988-10.956-3.5988h-54.116a51.01 51.01 0 0128.537-16.101l6.3846 6.6911c1.4395 1.5062 3.8254 1.5728 5.3316.11996zm-58.914 30.683a4.1453 4.1453 0 014.0253 4.1453 4.1453 4.1453 0 01-8.2906 0 4.1453 4.1453 0 014.2653-4.1453zm98.834.18661a4.1453 4.1453 0 014.0253 4.1453 4.1453 4.1453 0 01-8.2906 0 4.1453 4.1453 0 014.2653-4.1453zm-91.023.66645h7.2243v32.576h-14.582a51.01 51.01 0 01-1.6528-19.474l8.9304-3.972c1.906-.85305 2.7724-3.079 1.9194-4.985zm30.15.34655h17.208c.89304 0 6.2779 1.0263 6.2779 5.065 0 3.3456-4.132 4.5452-7.5309 4.5452h-15.968zm0 23.406h13.182c1.1996 0 6.4379.34655 8.104 7.0377.51983 2.0527 1.6794 8.7438 2.4659 10.89.78641 2.3992 3.972 7.1976 7.3709 7.1976h21.513a51.01 51.01 0 01-4.7184 5.4649l-8.7571-1.8794c-2.0393-.43986-4.052.86638-4.4919 2.9057l-2.0793 9.7035a51.01 51.01 0 01-42.533-.19994l-2.0793-9.7035c-.43986-2.0393-2.4392-3.3456-4.4785-2.9057l-8.5705 1.8394a51.01 51.01 0 01-4.4252-5.225h41.68c.46651 0 .78641-.08.78641-.51983v-14.742c0-.42652-.3199-.51983-.78641-.51983h-12.196zm-19.234 33.762a4.1453 4.1453 0 014.0253 4.1453 4.1453 4.1453 0 01-8.2906 0 4.1453 4.1453 0 014.2653-4.1453zm61.38.18661a4.1453 4.1453 0 014.0254 4.1453 4.1453 4.1453 0 01-8.2906 0 4.1453 4.1453 0 014.2653-4.1453z" stroke-width="1.3329"/><path d="m131.49 72a59.487 59.487 0 01-59.487 59.487 59.487 59.487 0 01-59.487-59.487 59.487 59.487 0 0159.487-59.487 59.487 59.487 0 0159.487 59.487zm-1.1196-5.7448 9.277 5.7448-9.277 5.7448 7.9707 7.4509-10.21 3.8254 6.3712 8.8638-10.783 1.7594 4.5318 9.9434-10.916-.38654 2.5058 10.637-10.637-2.5058.38654 10.916-9.9434-4.5318-1.7594 10.783-8.8638-6.3712-3.8254 10.21-7.4509-7.9707-5.7448 9.277-5.7448-9.277-7.4509 7.9707-3.8254-10.21-8.8638 6.3712-1.7594-10.783-9.9434 4.5318.38654-10.916-10.637 2.5058 2.5058-10.637-10.916.38654 4.5318-9.9434-10.783-1.7594 6.3712-8.8638-10.21-3.8254 7.9707-7.4509-9.277-5.7448 9.277-5.7448-7.9707-7.4509 10.21-3.8254-6.3712-8.8638 10.783-1.7594-4.5318-9.9434 10.916.38654-2.5058-10.637 10.637 2.5058-.38654-10.916 9.9434 4.5318 1.7594-10.783 8.8638 6.3712 3.8254-10.21 7.4509 7.9707 5.7448-9.2769 5.7448 9.2769 7.4509-7.9707 3.8254 10.21 8.8638-6.3712 1.7594 10.783 9.9434-4.5318-.38654 10.916 10.637-2.5058-2.5058 10.637 10.916-.38654-4.5318 9.9434 10.783 1.7594-6.3712 8.8638 10.21 3.8254z" fill-rule="evenodd" stroke="#ce412b" stroke-linecap="round" stroke-linejoin="round" stroke-width="3"/></g></svg>
