<?xml version="1.0" encoding="UTF-8"?>
<svg width="128" height="128" version="1.1" viewBox="0 0 128 128" xmlns="http://www.w3.org/2000/svg" xmlns:cc="http://creativecommons.org/ns#" xmlns:dc="http://purl.org/dc/elements/1.1/" xmlns:rdf="http://www.w3.org/1999/02/22-rdf-syntax-ns#">
 <title>svelte-logo</title>
 <path d="m110.46 16.936c-11.886-17.012-35.36-22.054-52.333-11.24l-29.809 18.999a34.198 34.198 0 0 0-15.45 22.906 36.016 36.016 0 0 0 3.5515 23.122 34.293 34.293 0 0 0-5.1157 12.78 36.444 36.444 0 0 0 6.2255 27.561c11.888 17.013 35.363 22.053 52.333 11.24l29.809-18.999a34.192 34.192 0 0 0 15.45-22.906 36.03 36.03 0 0 0-3.5489-23.123 34.286 34.286 0 0 0 5.1135-12.78 36.434 36.434 0 0 0-6.2255-27.561" fill="#ff3e00" stroke-width="1.1429"/>
 <path d="m55.219 112.66a23.678 23.678 0 0 1-25.414-9.4201 21.913 21.913 0 0 1-3.7447-16.574 20.787 20.787 0 0 1 0.71234-2.7837l0.56137-1.7118 1.5272 1.1217a38.451 38.451 0 0 0 11.661 5.8261l1.1079 0.33611-0.10206 1.1057a6.6827 6.6827 0 0 0 1.2023 4.4321 7.1302 7.1302 0 0 0 7.6517 2.84 6.5656 6.5656 0 0 0 1.831-0.80469l29.81-18.996a6.2064 6.2064 0 0 0 2.8007-4.1497 6.6226 6.6226 0 0 0-1.1286-4.9957 7.1355 7.1355 0 0 0-7.6546-2.8416 6.5631 6.5631 0 0 0-1.8286 0.80411l-11.375 7.2513a21.752 21.752 0 0 1-6.0531 2.6582 23.678 23.678 0 0 1-25.413-9.4202 21.911 21.911 0 0 1-3.7447-16.574 20.558 20.558 0 0 1 9.2914-13.773l29.807-18.998a21.719 21.719 0 0 1 6.0571-2.6614 23.678 23.678 0 0 1 25.413 9.4201 21.913 21.913 0 0 1 3.7447 16.574 21.029 21.029 0 0 1-0.71235 2.7837l-0.56137 1.7118-1.5264-1.12a38.42 38.42 0 0 0-11.661-5.8286l-1.1079-0.33623 0.10206-1.1057a6.6958 6.6958 0 0 0-1.2023-4.432 7.1302 7.1302 0 0 0-7.6517-2.84 6.5656 6.5656 0 0 0-1.831 0.80469l-29.81 18.997a6.1963 6.1963 0 0 0-2.7985 4.1486 6.6128 6.6128 0 0 0 1.1264 4.9962 7.1357 7.1357 0 0 0 7.6546 2.8416 6.5888 6.5888 0 0 0 1.8309-0.80469l11.374-7.2486a21.689 21.689 0 0 1 6.0525-2.6603 23.678 23.678 0 0 1 25.413 9.4202 21.911 21.911 0 0 1 3.7447 16.574 20.569 20.569 0 0 1-9.2914 13.775l-29.807 18.996a21.719 21.719 0 0 1-6.0571 2.6614" fill="#fff" stroke-width="1.1429"/>
 <metadata>
  <rdf:RDF>
   <cc:Work rdf:about="">
    <dc:title>svelte-logo</dc:title>
   </cc:Work>
  </rdf:RDF>
 </metadata>
</svg>
