<svg width="128" height="128" fill="none" version="1.1" viewBox="0 0 128 128" xmlns="http://www.w3.org/2000/svg"><g stroke-width=".25"><rect width="128" height="128" rx="12.5" fill="#3178c6"/><rect width="128" height="128" rx="12.5" fill="#3178c6"/><path d="m79.235 101.86v12.515c2.0345 1.043 4.4408 1.825 7.2188 2.3465s5.7058.78225 8.7838.78225c2.9998 0 5.8492-.28675 8.549-.8605 2.6998-.5735 5.067-1.5188 7.1015-2.8355 2.0345-1.3165 3.6452-3.0375 4.832-5.1625s1.7802-4.7518 1.7802-7.8805c0-2.2685-.339-4.2565-1.0172-5.9642s-1.6562-3.2265-2.9345-4.5562c-1.278-1.3298-2.8105-2.5228-4.5972-3.5788s-3.8018-2.0532-6.045-2.9918c-1.6432-.678-3.117-1.3362-4.4212-1.975-1.3042-.639-2.4128-1.2908-3.3258-1.9555-.913-.665-1.6172-1.369-2.1128-2.112-.4955-.74325-.7435-1.584-.7435-2.5228 0-.86025.22175-1.636.66525-2.327s1.0695-1.284 1.878-1.7795c.80875-.49525 1.7998-.88 2.9735-1.1538 1.174-.27375 2.478-.4105 3.9128-.4105 1.0432 0 2.1452.07825 3.306.2345 1.1608.1565 2.328.39775 3.502.7235 1.1738.326 2.3148.73675 3.4235 1.232 1.1085.4955 2.1322 1.069 3.0712 1.721v-11.694c-1.904-.73-3.9842-1.271-6.2405-1.623s-4.8452-.528-7.7665-.528c-2.9738 0-5.7908.3195-8.4512.95825s-5.0015 1.636-7.0232 2.9918c-2.0215 1.356-3.619 3.0832-4.7928 5.1822-1.1738 2.0988-1.7608 4.6082-1.7608 7.5285 0 3.7285 1.076 6.9095 3.228 9.543 2.1518 2.6332 5.4188 4.8625 9.801 6.6878 1.7215.704 3.3258 1.3948 4.8125 2.0728s2.7715 1.382 3.8538 2.112c1.0825.73 1.9368 1.5252 2.563 2.3858.626.86025.939 1.838.939 2.9332 0 .80825-.19575 1.5578-.587 2.2488s-.98475 1.2905-1.7802 1.799-1.7868.906-2.9735 1.1928c-1.187.287-2.5758.43025-4.167.43025-2.7128 0-5.3992-.47575-8.06-1.4275-2.6605-.9515-5.1255-2.379-7.3948-4.2825zm-21.04-30.836h16.055v-10.27h-44.75v10.27h15.976v45.73h12.718z" clip-rule="evenodd" fill="#fff" fill-rule="evenodd"/></g></svg>
