<svg width="270" height="200" version="1.1" viewBox="0 0 270 200" xmlns="http://www.w3.org/2000/svg"><defs><style type="text/css"/></defs><rect width="270" height="200" fill="#fff" stroke-width="0"/><g transform="matrix(1.057 0 0 1.057 27.62 -52.954)" fill-rule="evenodd"><g fill="none"><path d="m144.82 180.9c2.0476-.2056 4.0411-.1953 6.0937-.0753 2.6373.154 3.7874-.3716 3.1587 2.8903-.6195 3.2141-3.3617 5.1942-6.4214 5.8431-9.559 2.0273-14.028-7.534-2.831-8.6581zm-76.498-13.367c8.5282-1.4352 11.578 7.4886 9.8498 7.6584-.9669.095-10.94-.0215-12.889-.0215-4.4917-1e-4-4.5219.4271-3.7875-1.6667 1.1502-3.2788 3.3562-5.3864 6.8263-5.9702zm47.255 9.1019.009 19.846 11.79.0152.1309-7.8394.2304.6234c2.5006 8.4834 16.562 9.6989 23.427 5.3601l2.8145-1.8772.054 3.7207c3.3753-.049 7.8939.0738 11.393.108l.0886-14.814c.1038-.0893 1.4189 7.1451 10.088 12.351 5.2436 3.1485 12.026 4.6954 18.115 4.3578v-8.7886c-21.559-.0288-20.217-27.186 0-26.476v-8.8096c-8.9903-.0941-18.808 2.4824-24.595 9.8784-2.2865 2.9223-2.5393 4.1979-3.8601 7.5792-.8555-2.3648-.5534-3.5559-2.1877-6.0329-1.1634-1.7634-2.5011-3.0916-4.3722-4.1121-4.9877-2.8107-8.9301-2.3107-14.569-2.2664l-.01 8.6251c2.4855.0891 4.7668-.0432 6.9436 1.2836 2.1031 1.2818 2.9937 3.1098 2.8629 5.1299-.3878.1524-6.9791-.4468-8.1112-.4688-2.8877-.0563-5.4565.219-8.3364.5824-4.8652.6138-8.1063 3.112-9.9177 7.8063-.6833-.511 3.6646-20.015-14.999-22.747-5.217-.7636-11.344-.2224-15.799 2.7643-3.5776 2.3981-6.0975 6.1603-7.1308 11.793-.249-.1584-.8692-3.1819-1.0643-3.6842-3.4477-8.8801-12.227-12.544-21.509-11.387-8.6888 1.084-15.962 7.1688-17.299 15.635l-.5369 3.7345c-.8983-.7315-1.0719-1.7372-3.854-3.3716-1.601-.9407-3.3449-1.6523-5.1006-2.2511-3.8579-1.316-7.9215-1.8996-11.844-2.9875-1.5165-.4206-3.9107-1.152-4.7818-2.5521-1.1091-1.7828-.305-4.0293 1.4129-4.9932 3.8021-2.133 8.5896-.5809 12.557.2064l-.0239-9.2952c-26.753-4.2793-29.514 13.783-23.756 20.209 5.7495 6.4162 19.875 5.9711 24.133 9.3524 1.7932 1.4239 1.4795 4.2956-.3315 5.6507-1.8023 1.3485-4.8081 1.5293-6.9787 1.4781-4.9263-.1164-8.4792-1.6404-12.567-4.2141-2.0737-1.3056-1.3028-1.9013-4.5972 1.4865l-4.0362 4.2938c.4465 1.343 8.2895 4.8112 9.9361 5.3573 8.81 2.9218 24.344 3.1332 29.794-5.6126 1.1728-1.8817 1.3551-3.2587 1.8625-5.353 2.4539 3.4847 2.75 5.5977 8.119 8.4873 1.9711 1.0609 3.8951 1.8428 6.0967 2.2462 2.6621.4879 5.2972.5781 7.8409.448l-.0847-8.2059c-.6588.0483-3.1164-.0179-4.4155-.2661-1.2801-.2447-2.3448-.6643-3.466-1.3268-2.1465-1.2682-3.262-3.238-3.8454-5.5967l28.231.0353.1104 14.86 11.946-.0169.005-20.192c4e-4-1.6893.347-3.07.699-3.9291 2.9527-5.906 10.285-5.0973 12.361-.5525.8677 1.8995.925 2.7048.9259 4.7149z"/><path d="m105.46 109.71c-1.1803 2.2448-3.4445 5.1288-4.8737 7.535-1.6397 2.7606-2.8053 5.3854-4.188 8.2436-.876 1.8112.3995 2.2815 1.7876 3.5253 2.1154 1.8956 8.368 7.632 10.356 8.2692 10.228-6.9076 18.637-11.898 30.423-15.992 8.8151-3.0621 19.504-5.4647 28.902-5.9989l11.14-.496c.0512-.6531-14.672-5.117-16.157-5.4994-17.83-4.5897-39.842-4.7121-57.389.4131z"/><path d="m108.54 137.28c-1.9876-.6372-8.2402-6.3736-10.356-8.2692-.9913-.8883-1.9252-1.3821-2.059-2.2515-.0536-.3479.021-.7561.2714-1.2738 1.3827-2.8582 2.5483-5.483 4.188-8.2436 1.4292-2.4062 3.6934-5.2902 4.8737-7.535-5.4396 1.0203-13.418 4.566-18.679 6.7488.5125 1.3721 4.6234 5.8567 5.8493 7.0927 1.8602 1.8755 2.2622 2.4805 2.9164 3.2804-3.0768 7.9749-5.0459 15.764-5.1066 27.176.3115.2138 3.5421-3.8628 4.1679-4.4658 1.4863-1.4327 2.8747-2.9593 4.4253-4.333 1.5375-1.3621 3.0203-2.6965 4.5878-4.0272 1.5205-1.2907 3.5356-2.5991 4.9207-3.8993z"/><path d="m112.37 101.57c4.8907-.3951 9.3865-1.0674 14.374-1.1468 5.0393-.0802 9.9351.0392 14.935.6704 2.1819.2755 15.658 1.718 25.462 5.8027.5032-.4293-11.93-6.9515-12.968-7.4477-4.6448-2.2194-9.9277-4.1924-14.872-5.6227-4.3617-1.2616-7.965-2.0372-12.35-2.8972-2.159-.4234-2.2365-.3867-3.8733.9189-3.4409 2.7447-7.9451 6.3457-10.707 9.7224z"/></g><path d="m108.54 137.28c10.228-6.9076 18.637-11.898 30.423-15.992 8.8151-3.0621 19.504-5.4647 28.902-5.999l11.14-.4959c.0512-.6531-14.672-5.117-16.158-5.4994-17.83-4.5897-39.842-4.7121-57.389.4131-1.1803 2.2447-3.4445 5.1288-4.8737 7.535-1.6397 2.7606-2.8053 5.3854-4.188 8.2435-.2504.5177-.325.9259-.2715 1.2739.1339.8694 1.0678 1.3632 2.0591 2.2515 2.1154 1.8956 8.368 7.632 10.356 8.2692z" fill="#f78b1f"/><path d="m126.74 100.43c5.0393-.0802 9.9351.0392 14.935.6704 2.1819.2755 15.658 1.7179 25.462 5.8027.5032-.4294-11.93-6.9515-12.968-7.4478-4.6448-2.2193-9.9277-4.1923-14.872-5.6226-4.3617-1.2616-7.9651-2.0372-12.35-2.8972-2.1589-.4234-2.2365-.3867-3.8733.9188-3.4409 2.7448-7.9451 6.3458-10.707 9.7225 4.8907-.3951 9.3865-1.0674 14.374-1.1468z" fill="#005594"/><path d="m127.56 182.42c-.6833-.511 3.6645-20.015-14.999-22.747-5.217-.7637-11.344-.2224-15.799 2.7642-3.5776 2.3983-6.0975 6.1604-7.1308 11.793-.249-.1584-.8692-3.182-1.0643-3.6842-3.4477-8.8801-12.227-12.545-21.509-11.387-8.6888 1.084-15.962 7.1688-17.299 15.635l-.5369 3.7345c-.8983-.7315-1.0719-1.7372-3.854-3.3717-1.601-.9406-3.3449-1.6522-5.1006-2.251-3.8579-1.3161-7.9215-1.8997-11.844-2.9876-1.5165-.4206-3.9107-1.1519-4.7818-2.552-1.1091-1.7828-.305-4.0293 1.4129-4.9932 3.8021-2.133 8.5896-.5809 12.557.2064l-.0238-9.2952c-26.753-4.2793-29.514 13.783-23.756 20.209 5.7495 6.4162 19.875 5.9711 24.133 9.3524 1.7932 1.4239 1.4795 4.2956-.3316 5.6507-1.8022 1.3484-4.808 1.5293-6.9786 1.4781-4.9263-.1164-8.4792-1.6405-12.567-4.2141-2.0737-1.3056-1.3028-1.9013-4.5972 1.4865l-4.0362 4.2938c.4465 1.343 8.2895 4.8112 9.9361 5.3572 8.81 2.9219 24.344 3.1333 29.794-5.6125 1.1727-1.8818 1.355-3.2587 1.8624-5.353 2.4539 3.4846 2.75 5.5977 8.119 8.4873 1.9711 1.0609 3.8951 1.8428 6.0967 2.2462 2.6621.4879 5.2972.5781 7.8409.448l-.0847-8.2059c-.6588.0482-3.1164-.0179-4.4155-.2662-1.2801-.2447-2.3448-.6642-3.466-1.3267-2.1464-1.2682-3.262-3.238-3.8454-5.5967l28.231.0353.1104 14.86 11.946-.0168.005-20.192c5e-4-1.6892.347-3.0701.699-3.9291 2.9527-5.906 10.285-5.0973 12.361-.5525.8676 1.8995.9249 2.7048.9258 4.7149l.009 19.846 11.79.0152.131-7.8394.2303.6234c2.5007 8.4834 16.562 9.6989 23.427 5.3601l2.8145-1.8772.0541 3.7207c3.3752-.049 7.8938.0738 11.393.108l.0886-14.814c.1038-.0893 1.4189 7.1451 10.088 12.351 5.2436 3.1485 12.026 4.6953 18.115 4.3578v-8.7887c-21.559-.0287-20.217-27.186 0-26.476v-8.8096c-8.9903-.0942-18.808 2.4824-24.595 9.8784-2.2865 2.9222-2.5393 4.1978-3.8601 7.5792-.8555-2.3648-.5534-3.5559-2.1877-6.0329-1.1634-1.7634-2.5011-3.0916-4.3722-4.1121-4.9878-2.8107-8.9301-2.3107-14.569-2.2664l-.01 8.6251c2.4855.0891 4.7669-.0432 6.9436 1.2836 2.1031 1.2818 2.9938 3.1098 2.863 5.1299-.3879.1524-6.9792-.4468-8.1113-.4688-2.8877-.0563-5.4565.219-8.3364.5823-4.8652.614-8.1063 3.1121-9.9177 7.8064zm17.254-1.5162c2.0476-.2056 4.0411-.1953 6.0937-.0754 2.6373.1541 3.7874-.3715 3.1587 2.8904-.6195 3.2141-3.3617 5.1942-6.4214 5.8431-9.559 2.0273-14.028-7.534-2.831-8.6581zm-76.498-13.367c8.5282-1.4351 11.578 7.4886 9.8498 7.6584-.967.095-10.94-.0214-12.889-.0214-4.4917-1e-4-4.5219.4271-3.7875-1.6668 1.1502-3.2787 3.3562-5.3863 6.8263-5.9702z" fill="#005594"/><path d="m99.028 145.21c1.5375-1.3621 3.0203-2.6965 4.5879-4.0272 1.5204-1.2907 3.5355-2.5991 4.9206-3.8993-1.9876-.6372-8.2402-6.3736-10.356-8.2692-.9913-.8883-1.9252-1.3821-2.059-2.2515-.0536-.348.021-.7561.2714-1.2739 1.3827-2.8581 2.5483-5.4829 4.188-8.2435 1.4292-2.4062 3.6934-5.2903 4.8737-7.535-5.4396 1.0203-13.418 4.5659-18.679 6.7488.5125 1.3721 4.6234 5.8567 5.8493 7.0927 1.8601 1.8755 2.2622 2.4804 2.9164 3.2805-3.0769 7.9748-5.0459 15.763-5.1066 27.176.3115.2138 3.5422-3.8628 4.1679-4.4659 1.4863-1.4326 2.8747-2.9592 4.4253-4.3329z" fill="#f6bf86"/></g></svg>
