<svg width="270" height="200" version="1.1" viewBox="0 0 270 200" xmlns="http://www.w3.org/2000/svg"><defs><style type="text/css"/></defs><rect width="270" height="200" fill="#fff" stroke-width="0"/><g transform="matrix(2.3826 0 0 2.3826 27.256 59.495)"><path d="m14.05 8.112-7.026-4.056-7.024 4.056v-4.056l7.025-4.056 7.026 4.056v4.056z" fill="#a435f0"/><path d="m0 11.518h3.68v8.941c0 2.31 1.725 3.436 3.345 3.436 1.634 0 3.346-1.156 3.346-3.467v-8.91h3.68v9.154c0 2.128-.669 3.77-2.007 4.896-1.339 1.125-3.011 1.673-5.05 1.673-2.037 0-3.71-.547-5.017-1.673-1.308-1.125-1.977-2.706-1.977-4.805zm45.866 11.112c-1.114.992-2.383 1.478-3.83 1.478-2.64 0-4.41-1.504-4.61-3.833h11.89s.08-.752.08-1.458c0-2.19-.7-4.015-2.13-5.505-1.398-1.49-3.222-2.22-5.443-2.22-2.341 0-4.258.73-5.779 2.22-1.49 1.49-2.25 3.436-2.25 5.87v.12c0 2.403.76 4.319 2.25 5.749 1.49 1.429 3.467 2.159 5.87 2.159 2.794 0 5.017-1.102 6.685-3.002zm-6.994-7.463c.82-.639 1.825-.973 2.95-.973 1.064 0 1.946.334 2.707 1.004.726.61 1.118 1.359 1.152 2.22h-8.161c.118-.89.568-1.64 1.353-2.25zm44.038 14.109c-1.493 3.525-3.055 4.724-5.45 4.724h-1.66v-3.262h1.342c.824 0 1.59-.31 2.32-1.994l.73-1.686-6.296-15.54h3.741l4.471 11.192 4.593-11.192h3.74l-7.53 17.758zm-54.533-23.627v7.257c-1.206-1.08-3.082-1.723-4.896-1.723-2.16 0-3.984.76-5.474 2.31-1.46 1.521-2.19 3.406-2.19 5.687 0 2.282.73 4.167 2.19 5.718 1.49 1.521 3.315 2.282 5.474 2.282 2.49 0 4.064-.979 4.896-1.746v1.411h3.65v-21.195h-3.65zm-1.095 16.878c-.882.882-2.007 1.339-3.315 1.339s-2.372-.457-3.254-1.339c-.85-.882-1.277-2.007-1.277-3.345 0-1.339.426-2.464 1.277-3.346.882-.882 1.946-1.338 3.254-1.338s2.433.456 3.315 1.338c.912.882 1.37 2.007 1.37 3.346 0 1.338-.458 2.463-1.37 3.345zm40.94-11.313c-2.772 0-4.213 1.15-5.2 2.258-.395-.753-1.507-2.258-4.105-2.258-2.196 0-3.49 1.11-4.136 1.9v-1.594h-3.618v15.327h3.618v-8.82c0-2.068 1.278-3.558 2.98-3.558 1.735 0 2.738 1.308 2.738 3.406v8.971h3.619v-8.82c0-2.098 1.246-3.558 3.04-3.558 1.734 0 2.737 1.308 2.737 3.405v8.972h3.65v-9.488c0-3.996-2.148-6.142-5.323-6.142z"/></g></svg>
