<?xml version="1.0" encoding="UTF-8"?>
<!-- Created with Inkscape (http://www.inkscape.org/) -->
<svg width="1024" height="768" version="1.1" viewBox="0 0 1024 768" xml:space="preserve" xmlns="http://www.w3.org/2000/svg"><rect width="1024" height="768" stroke-width="0"/><g transform="translate(256.01 128)"><g transform="translate(-.4533 42.271)" stroke-linecap="round" stroke-linejoin="round" stroke-width="30"><g stroke="#000" stroke-linecap="round" stroke-linejoin="round" stroke-width="30"><path d="m26.527 305.91c0.89821 45.914 35.036 74.793 64.529 79.361 10.911 1.6897 29.751 0.21924 49.347-3.0024 34.679-5.7016 30.568-3.4274 48.993-5.0759 12.199-1.0914 28.617-20.591 29.854-36.633 0.16604-2.1529 0.16625-6.3619 0.16625-6.3619-14.97-5.518-23.266-17.119-24.76-34.918 0.39792-15.343 7.8424-26.519 21.983-33.735 0 0 0.98297-14.084-1.9851-29.726-10.1-53.228-20.425-63.402-37.351-71.636-8.9504-4.3541-38.715 20.901-73.947 47.063-38.425 28.533-77.46 62.38-76.829 94.664z"/><path d="m257.22 337.72c22.002-5.424 42.046-15.169 58.823-28.25 18.68-14.566 34.297-33.707 42.402-55.64l-10.79 0.20729 12.524-11.02c-67.389-7.3948-104.18-2.3601-136.7 13.39-1.439-16.398-6.5389-40.6-12.842-60.618-7.535-23.931-28.962-42.479-42.708-36.512-19.203 9.1652-45.182 31.517-59.829 42.85 0 0-30.747 23.434-42.401 32.806-15.678 1.2256-35.709-19.622-35.709-19.622l31.997-12.374-31.997 5.1265s8.3218-20.053 12.645-27.271c9.0752-15.152 32.256-34.07 32.256-34.07l-25.456-1.0607s35.147-38.771 58.867-47.023c25.267-8.7904 80.257 0.35355 80.257 0.35355s-15.943-13.667-19.976-22.981c-4.6129-10.654-3.5355-34.648-3.5355-34.648s10.252 20.917 16.44 30.759c5.3641 8.5306 10.683 17.316 17.854 24.395 6.4353 6.3517 14.223 11.289 22.097 15.733 5.0335 2.8408 11.6 2.6409 15.91 6.8943s2.9483 13.232 7.7782 17.324c5.4854 4.647 13.838 7.0242 20.86 5.4801 13.166-2.8954 20.187-17.955 31.194-25.738 18.722-13.237 58.962-35.427 58.962-35.427s36.258-21.347 51.442-12.374c16.436 9.7122 14.599 36.858 15.128 55.239 0.41105 14.287-0.80916 42.872-0.80916 42.872s17.65-0.45106 28.548 1.6589c12.39 2.3988 32.541 5.8717 35.207 17.653 3.5378 15.63-5.5307 26.461-13.551 37.964-15.85 22.729-36.672 41.901-58.16 59.397-5.1588 4.2005-16.794 10.783-16.794 10.783l12.905 1.591s-12.21 6.9571-17.147 11.844c-2.6143 2.5878-3.826 6.3529-6.364 9.0156-8.9214 9.36-19.241 17.654-30.582 23.865-22.198 12.157-46.983 19.378-71.595 25.279-6.6306 1.5898-15.778 3.3025-25.636 4.9259-80.147 15.345-53.602 3.0509-1.5201-32.776z"/><path d="m244.67 124.38c0.60288 3.3722 0.72612 5.357 4.333 8.4722 3.6068 3.1151 11.064 5.5015 17.14 4.084s9.8097-6.9925 14.375-11.064 7.962-8.3355 13.293-12.516c6.5154-5.109 12.783-9.2486 19.654-13.205 12.188-7.0172 26.851-13.756 38.584-21.51 2.7183-1.7964 5.3102-4.2801 7.1306-7.1442 1.8895-2.9728 2.3876-6.5212 2.3876-6.5212s-6.29 6.2875-15.77 10.431c-11.967 5.2312-27.459 10.5-38.429 11.45-12.251 1.06-18.371 0.21554-30.278 3.2874-7.4903 1.9324-15.868 4.4748-21.531 9.7447-3.6297 3.3779-7.8852 9.2015-9.5799 13.531s-1.9126 7.5878-1.3097 10.96z"/><path d="m312.78 83.467s8.4298-1.8341 12.11-2.9455c2.8378-0.85695 7.925-2.9713 7.925-2.9713s0.44518-2.736 0.42508-4.1147c-0.0334-2.2885-0.90437-6.8063-0.90437-6.8063s-5.4563 7.4688-8.953 10.429c-3.1517 2.6684-10.603 6.4084-10.603 6.4084z"/><path d="m240.43 85.496c0.31827-0.34532 22.751-0.0067 32.257-0.35806 10.482-0.38744 22.05-0.66946 31.232-2.2392 5.9189-1.0118 14.281-4.8362 15.757-10.243 2.252-8.2472 2.6494-14.996-3.0244-18.368-7.3585-4.3726-26.271 7.7341-38.709 12.84s-37.514 18.368-37.514 18.368z"/><path d="m240.43 85.496-35.438 16.003"/></g><rect x="207.76" y="254.28" width="129.42" height="80.981"/></g><g transform="translate(-.48809 42.327)"><path d="m26.527 305.91c0.89821 45.914 35.036 74.793 64.529 79.361 10.911 1.6897 29.751 0.21924 49.347-3.0024 34.679-5.7016 30.568-3.4274 48.993-5.0759 12.199-1.0914 28.617-20.591 29.854-36.633 0.16604-2.1529 0.16625-6.3619 0.16625-6.3619-14.97-5.518-23.266-17.119-24.76-34.918 0.39792-15.343 7.8424-26.519 21.983-33.735 0 0 0.98297-14.084-1.9851-29.726-10.1-53.228-20.425-63.402-37.351-71.636-8.9504-4.3541-38.715 20.901-73.947 47.063-38.425 28.533-77.46 62.38-76.829 94.664z" fill="#1d181c"/><circle cx="231.4" cy="299.28" r="29.698" fill="#474045"/><path d="m349.55 247.31c-17.226 15.152-37.084 31.098-56.643 43.254-7.5707 4.5892-24.414 8.7568-24.485 8.7648 8e-3 -5.021-0.89583-10.004-3.0701-14.935-2.1372-4.8202-5.2278-9.1433-9.4998-12.85-4.092-3.602-9.1197-6.2218-15.165-7.774-5.6116-1.3325-10.684-1.4656-16.314-0.13505 33.958-22.522 86.051-21.007 125.18-16.324z" fill="#fb0072"/><path d="m267.37 305.08c3.5362-0.95349 6.9577-1.9671 10.278-3.0339 3.494-1.1057 6.9647-2.3722 10.414-3.7835 4.0222-1.5918 7.5724-3.811 8.6677-4.5263l8.5273-5.6905c3.171-2.2403 6.323-4.4963 9.3716-6.8377 3.1836-2.4264 6.2763-4.8581 9.2682-7.2958 2.9676-2.4567 5.9728-4.8962 8.8662-7.387 2.9064-2.4647 5.871-5.0507 8.7171-7.5459l8.2658-0.22478c-27.786 53.943-75.493 69.314-104.17 74.176 7.8311-3.3334 14.579-9.8049 18.14-16.899 2.293-4.569 3.2657-6.1645 3.6556-10.951z" fill="#1d1424"/><path d="m257.22 337.72c22.002-5.424 42.046-15.169 58.823-28.25 18.68-14.566 34.297-33.707 42.402-55.64l-10.79 0.20729 12.524-11.02c-67.389-7.3948-104.18-2.3601-136.7 13.39-1.439-16.398-6.5389-40.6-12.842-60.618-7.535-23.931-28.962-42.479-42.708-36.512-19.203 9.1652-45.182 31.517-59.829 42.85 0 0-30.747 23.434-42.401 32.806-15.678 1.2256-35.709-19.622-35.709-19.622l31.997-12.374-31.997 5.1265s8.3218-20.053 12.645-27.271c9.0752-15.152 32.256-34.07 32.256-34.07l-25.456-1.0607s35.147-38.771 58.867-47.023c25.267-8.7904 80.257 0.35355 80.257 0.35355s-15.943-13.667-19.976-22.981c-4.6129-10.654-3.5355-34.648-3.5355-34.648s10.252 20.917 16.44 30.759c5.3641 8.5306 10.683 17.316 17.854 24.395 6.4353 6.3517 14.223 11.289 22.097 15.733 5.0335 2.8408 11.6 2.6409 15.91 6.8943s2.9483 13.232 7.7782 17.324c5.4854 4.647 13.838 7.0242 20.86 5.4801 13.166-2.8954 20.187-17.955 31.194-25.738 18.722-13.237 58.962-35.427 58.962-35.427s36.258-21.347 51.442-12.374c16.436 9.7122 14.599 36.858 15.128 55.239 0.41105 14.287-0.80916 42.872-0.80916 42.872s17.65-0.45106 28.548 1.6589c12.39 2.3988 32.541 5.8717 35.207 17.653 3.5378 15.63-5.5307 26.461-13.551 37.964-15.85 22.729-36.672 41.901-58.16 59.397-5.1588 4.2005-16.794 10.783-16.794 10.783l12.905 1.591s-12.21 6.9571-17.147 11.844c-2.6143 2.5878-3.826 6.3529-6.364 9.0156-8.9214 9.36-19.241 17.654-30.582 23.865-22.198 12.157-46.983 19.378-71.595 25.279-6.6306 1.5898-15.778 3.3025-25.636 4.9259-80.147 15.345-53.602 3.0509-1.5201-32.776z" display="none" fill="#fefcf2"/><path d="m257.22 337.72 36.343-13.759 55.987-10.69 43.485-72.495-7.3308-19.055-27.258 32.109-10.79 0.20729 12.524-11.02c-67.389-7.3948-104.18-2.3601-136.7 13.39-1.439-16.398-6.5389-40.6-12.842-60.618-7.535-23.931-28.962-42.479-42.708-36.512-19.203 9.1652-45.182 31.517-59.829 42.85 0 0-30.747 23.434-42.401 32.806-15.678 1.2256-35.709-19.622-35.709-19.622l31.997-12.374-17.698 2.8356-1.6536-24.98c9.0752-15.152 32.256-34.07 32.256-34.07l-25.456-1.0607s35.147-38.771 58.867-47.023c25.267-8.7904 80.257 0.35355 80.257 0.35355s-15.943-13.667-19.976-22.981c-4.6129-10.654-3.5355-34.648-3.5355-34.648s10.252 20.917 16.44 30.759c5.3641 8.5306 10.683 17.316 17.854 24.395 6.4353 6.3517 14.223 11.289 22.097 15.733 5.0335 2.8408 11.6 2.6409 15.91 6.8943s2.9483 13.232 7.7782 17.324c5.4854 4.647 13.838 7.0242 20.86 5.4801l152.06 56.125-38.411 103.81-95.262 63.692c-8.5454 1.642-17.091 3.2839-25.636 4.9259-80.137 15.398-53.602 3.0509-1.5201-32.776z" fill="#fefcf2"/><g fill="#ff2700"><path d="m244.67 124.38c0.60288 3.3722 0.72612 5.357 4.333 8.4722 3.6068 3.1151 11.064 5.5015 17.14 4.084s9.8097-6.9925 14.375-11.064 7.962-8.3355 13.293-12.516c6.5154-5.109 12.783-9.2486 19.654-13.205 12.188-7.0172 26.851-13.756 38.584-21.51 2.7183-1.7964 5.3102-4.2801 7.1306-7.1442 1.8895-2.9728 2.3876-6.5212 2.3876-6.5212s-6.29 6.2875-15.77 10.431c-11.967 5.2312-27.459 10.5-38.429 11.45-12.251 1.06-18.371 0.21554-30.278 3.2874-7.4903 1.9324-15.868 4.4748-21.531 9.7447-3.6297 3.3779-7.8852 9.2015-9.5799 13.531s-1.9126 7.5878-1.3097 10.96z"/><path d="m240.41 114.13s5.8047-11.085 10.157-15.449c4.1689-4.1801 14.773-9.7691 14.773-9.7691s-21.008-0.1777-27.357 0.20638c-6.3496 0.38407-10.556 2.4178-14.161 5.6284s-3.5212 13.846 1.608 14.869"/><path d="m312.78 83.467s8.4298-1.8341 12.11-2.9455c2.8378-0.85695 7.925-2.9713 7.925-2.9713s0.44518-2.736 0.42508-4.1147c-0.0334-2.2885-0.90437-6.8063-0.90437-6.8063s-5.4563 7.4688-8.953 10.429c-3.1517 2.6684-10.603 6.4084-10.603 6.4084z" fill-opacity=".99379"/></g><g fill="#fc0070"><path d="m240.43 85.496c0.31827-0.34532 22.751-0.0067 32.257-0.35806 10.482-0.38744 22.05-0.66946 31.232-2.2392 5.9189-1.0118 14.281-4.8362 15.757-10.243 2.252-8.2472 2.6494-14.996-3.0244-18.368-7.3585-4.3726-26.271 7.7341-38.709 12.84s-37.514 18.368-37.514 18.368z"/><path d="m293.57 323.96c7.2581-3.8198 14.892-8.5708 22.475-14.484 18.68-14.566 34.297-33.707 42.402-55.64 8.1386-12.228 14.446-13.637 10.172-21.343-7.2387-13.055-25.097-21.058-39.168-29.294-22.41-13.118-62.304-17.62-71.227-31.55s-3.3399-24.855 7.7683-29.695c10.094-2.2198 20.187-17.955 31.194-25.738 18.722-13.237 58.962-35.427 58.962-35.427s36.258-21.347 51.442-12.374c16.436 9.7122 14.599 36.858 15.128 55.239 0.41105 14.287-0.80916 42.872-0.80916 42.872s17.65-0.45106 28.548 1.6589c12.39 2.3988 32.541 5.8717 35.207 17.653 3.5378 15.63-5.5307 26.461-13.551 37.964-15.85 22.729-36.672 41.901-58.16 59.397-5.1588 4.2005-16.794 10.783-16.794 10.783l12.905 1.591s-12.21 6.9571-17.147 11.844c-2.6143 2.5878-3.826 6.3529-6.364 9.0156-8.9214 9.36-19.241 17.654-30.582 23.865-22.198 12.157-46.983 19.378-71.595 25.279z"/><path d="m95.56 169.81c-7.1753 2.7522-15.222 6.8066-21.553 11.163-10.876 7.4829-29.712 24.805-29.712 24.805l-14.295 2.2904s8.3218-20.053 12.645-27.271c9.0752-15.152 26.472-24.098 42.611-31.062 25.123-10.841 55.12-5.3401 80.687-15.087 10.421-3.9729 28.635-17.305 28.635-17.305s-16.216 18.797-26.664 25.115c-18.565 11.228-61.527 21.238-61.527 21.238l39.753-2.2842s-34.623 2.2773-50.58 8.398z"/></g></g></g></svg>
